<svg xmlns="http://www.w3.org/2000/svg" viewBox="0 0 44 44"><path d="M22.006 11.502 29 15.005V8l-6.994 3.502Z" fill="#FFB038"/><path d="m29 15.005-6.994 3.492v-6.995L29 15.005Z" fill="#F86141"/><path d="m15 22 7.006 3.503v-7.005L15 22Z" fill="#F58E78"/><path d="m15 15.005 7.006 3.492v-6.995L15 15.005Z" fill="#4F2F8D"/><path d="M22.006 18.497 15 22v-6.996l7.006 3.493Z" fill="#DF1722"/><path d="M22.006 25.502 29 29.005V22l-6.994 3.502Z" fill="#BB1714"/><path d="m29 29.005-6.994 3.502v-7.005L29 29.005Z" fill="#ED3330"/><path d="m29 22-6.994 3.503v-7.005L29 22Z" fill="#ED3330"/><path d="m15 29.005 7.006 3.502v-7.005L15 29.005Z" fill="#9B85C5"/><path d="M22.006 32.508 15 36v-6.995l7.006 3.502Z" fill="#4F2F8D"/></svg>
